<svg width="58" height="58" viewBox="0 0 58 58" fill="none" xmlns="http://www.w3.org/2000/svg">
<g clip-path="url(#clip0_1148_2)">
<circle cx="29" cy="29" r="29" fill="#DDD0B6"/>
<circle cx="29" cy="29" r="29" fill="url(#paint0_radial_1148_2)" fill-opacity="0.2"/>
<path d="M8.928 34.924C6.648 34.924 4.752 34.276 3.24 32.98C1.656 31.564 0.864 29.74 0.864 27.508C0.864 25.444 1.596 23.68 3.06 22.216C4.572 20.752 6.348 20.02 8.388 20.02C9.852 20.02 11.136 20.44 12.24 21.28C13.44 22.168 14.04 23.332 14.04 24.772C14.04 26.164 13.572 27.28 12.636 28.12C11.724 28.888 10.572 29.272 9.18 29.272C8.244 29.272 7.632 29.164 7.344 28.948L7.308 28.876C7.38 28.78 7.452 28.732 7.524 28.732C7.548 28.732 7.572 28.744 7.596 28.768C7.716 28.84 7.896 28.888 8.136 28.912C8.4 28.936 8.7 28.948 9.036 28.948C10.356 28.948 11.4 28.564 12.168 27.796C12.936 27.052 13.32 26.02 13.32 24.7C13.32 23.404 12.876 22.36 11.988 21.568C11.1 20.8 10.02 20.416 8.748 20.416C6.78 20.416 5.16 21.052 3.888 22.324C2.64 23.572 2.016 25.192 2.016 27.184C2.016 29.344 2.712 31.048 4.104 32.296C5.448 33.496 7.224 34.096 9.432 34.096C14.184 34.096 19.188 30.556 24.444 23.476C28.5 18.052 31.68 14.68 33.984 13.36L26.424 10.804C25.896 10.612 25.356 10.48 24.804 10.408C24.276 10.336 23.736 10.3 23.184 10.3C21.312 10.3 19.596 10.792 18.036 11.776C16.284 12.928 15.408 14.392 15.408 16.168C15.408 16.984 15.6 17.776 15.984 18.544C16.8 20.248 18.36 21.1 20.664 21.1C20.856 21.1 21.036 21.1 21.204 21.1C21.372 21.1 21.54 21.088 21.708 21.064C22.764 20.92 23.712 20.44 24.552 19.624C25.488 18.712 25.956 17.776 25.956 16.816C25.956 16.096 25.656 15.556 25.056 15.196C25.032 15.172 25.02 15.136 25.02 15.088C25.02 15.04 25.044 15.016 25.092 15.016C25.116 15.016 25.128 15.028 25.128 15.052C25.152 15.052 25.176 15.052 25.2 15.052H25.308C26.076 15.46 26.46 16.12 26.46 17.032C26.46 18.016 26.04 18.952 25.2 19.84C24.432 20.608 23.52 21.124 22.464 21.388C21.816 21.556 21.12 21.64 20.376 21.64C18.696 21.64 17.268 21.112 16.092 20.056C14.892 18.928 14.292 17.524 14.292 15.844C14.292 13.756 15.144 12.076 16.848 10.804C18.384 9.628 20.22 9.04 22.356 9.04C22.5 9.04 22.632 9.04 22.752 9.04C22.896 9.04 23.028 9.052 23.148 9.076C26.004 9.316 29.136 10.288 32.544 11.992C32.784 12.088 33.06 12.232 33.372 12.424C33.708 12.592 34.092 12.808 34.524 13.072C35.652 12.208 37.02 11.776 38.628 11.776C38.964 11.776 39.288 11.812 39.6 11.884C39.936 11.932 40.224 12.028 40.464 12.172C41.136 12.532 41.472 13.036 41.472 13.684C41.472 14.788 40.872 15.34 39.672 15.34C39.312 15.34 38.904 15.28 38.448 15.16C38.016 15.04 37.716 14.932 37.548 14.836C37.308 15.196 37.056 15.58 36.792 15.988C36.528 16.396 36.252 16.84 35.964 17.32C35.58 17.968 34.896 19.504 33.912 21.928C33.528 22.888 33.12 23.728 32.688 24.448C32.28 25.168 31.836 25.792 31.356 26.32C29.412 28.432 27.18 29.98 24.66 30.964C24.708 30.964 24.768 30.964 24.84 30.964C24.936 30.94 25.056 30.928 25.2 30.928H25.74C26.244 30.928 26.7 30.952 27.108 31C27.54 31.048 27.936 31.108 28.296 31.18C29.712 31.54 30.54 31.72 30.78 31.72C31.212 31.72 31.428 31.54 31.428 31.18C31.428 31.036 31.404 30.916 31.356 30.82C31.332 30.724 31.32 30.652 31.32 30.604C31.32 30.532 31.32 30.484 31.32 30.46C31.32 30.436 31.32 30.424 31.32 30.424C31.344 30.4 31.356 30.388 31.356 30.388C31.38 30.388 31.404 30.4 31.428 30.424C31.644 30.64 31.752 30.928 31.752 31.288C31.752 32.2 31.14 32.656 29.916 32.656C29.676 32.656 29.412 32.632 29.124 32.584C28.836 32.536 28.524 32.44 28.188 32.296L26.568 31.648C26.136 31.456 25.692 31.336 25.236 31.288C24.78 31.264 24.312 31.252 23.832 31.252L23.796 31.144C25.212 30.136 26.52 28.948 27.72 27.58C28.584 26.62 29.604 25.168 30.78 23.224C30.852 23.104 30.996 22.864 31.212 22.504H25.776C24.432 24.424 23.172 26.092 21.996 27.508C20.82 28.9 19.74 30.016 18.756 30.856C15.684 33.568 12.408 34.924 8.928 34.924ZM39.06 15.052C40.284 15.052 40.896 14.608 40.896 13.72C40.896 13.192 40.68 12.784 40.248 12.496C39.864 12.208 39.396 12.064 38.844 12.064C37.356 12.064 36.012 12.448 34.812 13.216C35.196 13.384 35.58 13.576 35.964 13.792C36.348 13.984 36.732 14.176 37.116 14.368L38.664 12.784C38.712 12.784 38.736 12.808 38.736 12.856C38.736 13 38.388 13.6 37.692 14.656C38.148 14.92 38.604 15.052 39.06 15.052ZM26.064 22.108H31.464C32.976 19.612 34.776 17.092 36.864 14.548L34.344 13.504C33.744 13.888 33.06 14.404 32.292 15.052C31.548 15.7 30.744 16.492 29.88 17.428C28.392 19.06 27.12 20.62 26.064 22.108Z" fill="#9C3A51"/>
<path d="M32.264 47.26C30.536 47.26 29.012 46.696 27.692 45.568C26.324 44.368 25.64 42.916 25.64 41.212C25.64 39.484 26.24 37.924 27.44 36.532C28.64 35.236 30.104 34.408 31.832 34.048C31.736 33.688 31.688 33.28 31.688 32.824C31.688 31.672 31.964 30.508 32.516 29.332C33.092 28.084 33.836 27.16 34.748 26.56C36.524 25.384 38.564 24.796 40.868 24.796C42.524 24.796 44.336 25.096 46.304 25.696C46.616 25.768 47.204 25.96 48.068 26.272C48.956 26.56 50.12 26.968 51.56 27.496C52.88 26.584 54.092 26.128 55.196 26.128C56.276 26.128 56.816 26.536 56.816 27.352C56.816 28.168 56.096 28.576 54.656 28.576C53.912 28.576 52.964 28.372 51.812 27.964C50.396 29.452 49.04 31.828 47.744 35.092H49.652L49.724 35.164V35.38L49.652 35.416H47.636C46.196 38.824 44.456 41.416 42.416 43.192V43.156C41.672 43.828 40.928 44.416 40.184 44.92C39.44 45.4 38.696 45.796 37.952 46.108C36.512 46.708 34.76 47.08 32.696 47.224C32.624 47.224 32.552 47.224 32.48 47.224C32.408 47.248 32.336 47.26 32.264 47.26ZM32.732 46.72C34.724 46.72 36.692 45.928 38.636 44.344C40.22 43.048 41.624 41.392 42.848 39.376C43.112 38.92 43.436 38.368 43.82 37.72C44.228 37.072 44.696 36.304 45.224 35.416H42.02L41.984 35.38V35.164L42.02 35.092H45.404C47.732 31.348 49.652 28.912 51.164 27.784C47.108 26.488 43.748 25.84 41.084 25.84C38.396 25.84 36.38 26.476 35.036 27.748C33.524 29.212 32.768 31.012 32.768 33.148C32.768 33.268 32.768 33.4 32.768 33.544C32.768 33.664 32.78 33.784 32.804 33.904C32.924 33.904 33.02 33.904 33.092 33.904C33.188 33.88 33.284 33.868 33.38 33.868C35.66 33.868 37.052 34.84 37.556 36.784C38.492 36.376 39.344 35.74 40.112 34.876C41 33.916 41.444 32.98 41.444 32.068C41.444 31.924 41.492 31.852 41.588 31.852C41.684 31.852 41.732 31.9 41.732 31.996C41.732 32.02 41.72 32.056 41.696 32.104C41.696 32.152 41.696 32.2 41.696 32.248C41.168 34.624 39.812 36.244 37.628 37.108C37.7 37.396 37.736 37.708 37.736 38.044C37.736 39.388 37.208 40.564 36.152 41.572C35.12 42.532 33.92 43.012 32.552 43.012C32.408 43.012 32.336 42.952 32.336 42.832C32.336 42.664 32.456 42.568 32.696 42.544C32.816 42.52 32.972 42.496 33.164 42.472C33.38 42.448 33.608 42.4 33.848 42.328C35.672 41.896 36.788 40.78 37.196 38.98C37.244 38.788 37.28 38.596 37.304 38.404C37.328 38.188 37.34 37.996 37.34 37.828C37.34 37.732 37.328 37.636 37.304 37.54C37.304 37.42 37.304 37.312 37.304 37.216C36.8 37.384 36.284 37.468 35.756 37.468C34.796 37.468 33.992 37.192 33.344 36.64C32.672 36.088 32.204 35.368 31.94 34.48C30.428 35.056 29.204 36.004 28.268 37.324C27.308 38.668 26.828 40.144 26.828 41.752C26.828 43.408 27.416 44.668 28.592 45.532C29.648 46.324 31.028 46.72 32.732 46.72ZM54.692 28.288C55.892 28.288 56.492 27.976 56.492 27.352C56.492 26.68 56.024 26.344 55.088 26.344C54.008 26.344 53.012 26.788 52.1 27.676C53.252 28.084 54.116 28.288 54.692 28.288ZM35.864 37.144C36.344 37.144 36.8 37.06 37.232 36.892C37.016 36.052 36.56 35.392 35.864 34.912C35.168 34.432 34.388 34.192 33.524 34.192C33.428 34.192 33.32 34.192 33.2 34.192C33.104 34.192 32.996 34.204 32.876 34.228C32.948 34.612 33.068 34.972 33.236 35.308C33.428 35.644 33.644 35.956 33.884 36.244C34.46 36.844 35.12 37.144 35.864 37.144Z" fill="#9C3A51"/>
</g>
<defs>
<radialGradient id="paint0_radial_1148_2" cx="0" cy="0" r="1" gradientUnits="userSpaceOnUse" gradientTransform="translate(29 29) rotate(90) scale(29)">
<stop stop-color="#DDD0B6"/>
<stop offset="1" stop-color="#FF8B13"/>
</radialGradient>
<clipPath id="clip0_1148_2">
<rect width="58" height="58" fill="white"/>
</clipPath>
</defs>
</svg>
